REM DIRINDEX 1\2,1\3
REM DIRNAME cjc052,folder01,folder02
TITLE ""
FILE "Disk2Track29.mp3" MP3
  TRACK 01 AUDIO
    TITLE "2:cjc052_0718"
    INDEX 01 00:00:00
  TRACK 02 AUDIO
    TITLE "2:cjc052_0719"
    INDEX 01 00:08:56
  TRACK 03 AUDIO
    TITLE "2:cjc052_0720"
    INDEX 01 00:15:68
  TRACK 04 AUDIO
    TITLE "2:cjc052_0721"
    INDEX 01 00:27:12
  TRACK 05 AUDIO
    TITLE "2:cjc052_0722"
    INDEX 01 00:41:73
  TRACK 06 AUDIO
    TITLE "0:"
    INDEX 01 01:02:61
